<svg width="30" height="23" viewBox="0 0 30 23" fill="none" xmlns="http://www.w3.org/2000/svg">
  <path fill-rule="evenodd" clip-rule="evenodd"
    d="M4.16235 22.688C7.894 22.688 10.7153 17.8296 13.2446 12.5253C14.4619 9.95378 15.597 7.25937 16.7322 4.97509C17.9787 2.44131 19.2574 0.652954 20.8219 0.652954C22.1481 0.652954 23.3961 1.72392 24.6382 3.40202C27.2133 6.88606 29.4391 12.7863 29.4391 16.656C29.4391 19.8976 27.7705 22.688 24.3509 22.688H4.16235Z"
    fill="#64CDFF"/>
  <path fill-rule="evenodd" clip-rule="evenodd"
    d="M13.2445 12.5253C10.6812 7.35769 9.52067 3.56616 7.2535 3.56616C5.84463 3.56616 4.25801 5.04347 2.82182 7.46438C1.2832 10.0333 0.0725098 13.6583 0.0725098 17.5589C0.0725098 20.639 1.57999 22.688 4.16225 22.688C7.89295 22.688 10.7152 17.8295 13.2445 12.5253Z"
    fill="#2855AF"/>
</svg>
